# xmcd
#
# Track frame offsets:
#	150
#	9789
#	18425
#	30893
#	40022
#	50978
#	63046
#	72641
#	83220
#	94890
#	103891
#	115094
#	125886
#	136108
#	148862
#	158839
#	168305
#	180741
#	192196
#	202428
#	209043
#	219733
#	228871
#	243834
#	255977
#
# Disc length: 3548 seconds
#
# Revision: 2
# Processed by: cddbd v1.5.2PL0 Copyright (c) Steve Scherf et al.
# Submitted via: audiograbber 1.83.01
#
DISCID=690dda19
DTITLE=Various Artist - Any Day Now - The Quality Records Story  [CD2)
DYEAR=2013
DGENRE=Oldies
TTITLE0=Tico and The Triumphs - Motorcycle 
TTITLE1=Dennis Turner - Lover Please 
TTITLE2=Del Shannon - Little Town Flirt 
TTITLE3=Five Discs - I Remember
TTITLE4=Blue Belles - I Sold My Heart To The Junkman 
TTITLE5=Sammy Turner - Goodnight Irene 
TTITLE6=Isley Brothers - The Snake 
TTITLE7=Jarmels - A Little Bit Of Soap 
TTITLE8=Glen Campbell - Turn Around, Look At Me 
TTITLE9=Danny and The Juniors - Doin' The Continental Walk 
TTITLE10=Myron Lee and The Caddies - Blue Lawdy Blue 
TTITLE11=Barbara Lynn - You'll Lose A Good Thing 
TTITLE12=Rockin' Rebels - Wild Weekend 
TTITLE13=Alley Cats - Puddin' 'N' Tain 
TTITLE14=Tams - Deep Inside Me 
TTITLE15=Chuck Berry - Bye Bye Johnny 
TTITLE16=Wilbert Harrison - Let's Stick Together 
TTITLE17=Dale Hawkins - Poor Little Rhode Island 
TTITLE18=Teddy and The Twilights - Woman Is A Man's Best Friend 
TTITLE19=Dick Damron - Black Maria 
TTITLE20=Chuck Jackson - Getting Ready For The Heartbreak 
TTITLE21=Ritchie and The Squires - Beat Party 
TTITLE22=Esther Phillips - Release Me 
TTITLE23=Herb Albert and The Tijuana Brass - Acapulco 1922 
TTITLE24=Vibrations - Love Me Like You Should 
EXTD=
EXTT0=
EXTT1=
EXTT2=
EXTT3=
EXTT4=
EXTT5=
EXTT6=
EXTT7=
EXTT8=
EXTT9=
EXTT10=
EXTT11=
EXTT12=
EXTT13=
EXTT14=
EXTT15=
EXTT16=
EXTT17=
EXTT18=
EXTT19=
EXTT20=
EXTT21=
EXTT22=
EXTT23=
EXTT24=
PLAYORDER=
